<?xml version="1.0" encoding="utf-8"?>
<!-- Generator: Adobe Illustrator 25.2.1, SVG Export Plug-In . SVG Version: 6.00 Build 0)  -->
<svg version="1.1" id="Layer_1" xmlns="http://www.w3.org/2000/svg" xmlns:xlink="http://www.w3.org/1999/xlink" x="0px" y="0px"
	 viewBox="0 0 1000 1000" style="enable-background:new 0 0 1000 1000;" xml:space="preserve">
<style type="text/css">
	.st0{fill:#FFFFFF;}
	.st1{fill:#6777EF;}
</style>
<circle class="st0" cx="500" cy="500" r="500"/>
<g>
	<path class="st1" d="M719.9,561.8H280.1c-14,0-25.4,11.4-25.4,25.4v20.3c0,9.9,5.8,18.9,14.7,23C346,665.8,423,683.4,500,683.4
		s154-17.6,230.5-52.9c9-4.1,14.7-13.1,14.7-23v-20.3C745.2,573.1,733.9,561.8,719.9,561.8z"/>
	<path class="st1" d="M705.3,511.1c-6.9-28-19.5-54.4-37.5-77.8c-17.9-23.3-40.7-42.6-66.3-56.7v16.1c0,14-11.4,25.4-25.4,25.4
		s-25.4-11.4-25.4-25.4v-50.7c0-14-11.4-25.4-25.4-25.4h-50.7c-14,0-25.4,11.4-25.4,25.4v50.7c0,14-11.4,25.4-25.4,25.4
		s-25.4-11.4-25.4-25.4v-16.1c-25.6,14.1-48.4,33.4-66.3,56.7c-18,23.4-30.6,49.8-37.5,77.8H705.3z"/>
</g>
</svg>
